<svg width="60" height="60" viewBox="0 0 60 60" fill="none" xmlns="http://www.w3.org/2000/svg">
<path d="M14.0594 20.4257C13.8904 20.4233 13.7226 20.4545 13.5658 20.5176C13.409 20.5807 13.2663 20.6743 13.1459 20.7931C13.0256 20.9119 12.93 21.0534 12.8648 21.2095C12.7996 21.3656 12.766 21.5331 12.766 21.7022C12.766 21.8714 12.7996 22.0389 12.8648 22.195C12.93 22.3511 13.0256 22.4926 13.1459 22.6114C13.2663 22.7302 13.409 22.8238 13.5658 22.8869C13.7226 22.95 13.8904 22.9812 14.0594 22.9788H44.6641C44.8331 22.9812 45.0009 22.95 45.1577 22.8869C45.3145 22.8238 45.4572 22.7302 45.5775 22.6114C45.6979 22.4926 45.7934 22.3511 45.8587 22.195C45.9239 22.0389 45.9575 21.8714 45.9575 21.7022C45.9575 21.5331 45.9239 21.3656 45.8587 21.2095C45.7934 21.0534 45.6979 20.9119 45.5775 20.7931C45.4572 20.6743 45.3145 20.5807 45.1577 20.5176C45.0009 20.4545 44.8331 20.4233 44.6641 20.4257H14.0594ZM14.0594 29.3617C13.8904 29.3593 13.7226 29.3906 13.5658 29.4537C13.409 29.5167 13.2663 29.6104 13.1459 29.7292C13.0256 29.848 12.93 29.9895 12.8648 30.1456C12.7996 30.3016 12.766 30.4691 12.766 30.6383C12.766 30.8075 12.7996 30.975 12.8648 31.131C12.93 31.2871 13.0256 31.4287 13.1459 31.5474C13.2663 31.6662 13.409 31.7599 13.5658 31.8229C13.7226 31.886 13.8904 31.9173 14.0594 31.9149H44.6641C44.8331 31.9173 45.0009 31.886 45.1577 31.8229C45.3145 31.7599 45.4572 31.6662 45.5775 31.5474C45.6979 31.4287 45.7934 31.2871 45.8587 31.131C45.9239 30.975 45.9575 30.8075 45.9575 30.6383C45.9575 30.4691 45.9239 30.3016 45.8587 30.1456C45.7934 29.9895 45.6979 29.848 45.5775 29.7292C45.4572 29.6104 45.3145 29.5167 45.1577 29.4537C45.0009 29.3906 44.8331 29.3593 44.6641 29.3617H14.0594ZM14.0594 38.2978C13.8904 38.2954 13.7226 38.3266 13.5658 38.3897C13.409 38.4528 13.2663 38.5465 13.1459 38.6652C13.0256 38.784 12.93 38.9255 12.8648 39.0816C12.7996 39.2377 12.766 39.4052 12.766 39.5744C12.766 39.7435 12.7996 39.911 12.8648 40.0671C12.93 40.2232 13.0256 40.3647 13.1459 40.4835C13.2663 40.6023 13.409 40.6959 13.5658 40.759C13.7226 40.8221 13.8904 40.8533 14.0594 40.8509H44.6641C44.8331 40.8533 45.0009 40.8221 45.1577 40.759C45.3145 40.6959 45.4572 40.6023 45.5775 40.4835C45.6979 40.3647 45.7934 40.2232 45.8587 40.0671C45.9239 39.911 45.9575 39.7435 45.9575 39.5744C45.9575 39.4052 45.9239 39.2377 45.8587 39.0816C45.7934 38.9255 45.6979 38.784 45.5775 38.6652C45.4572 38.5465 45.3145 38.4528 45.1577 38.3897C45.0009 38.3266 44.8331 38.2954 44.6641 38.2978H14.0594Z" fill="white"/>
</svg>
